<svg xmlns="http://www.w3.org/2000/svg" width="78.909" height="63.127" viewBox="0 0 78.909 63.127">
  <path id="FontAwsome_crown_" data-name="FontAwsome (crown)" d="M65.1,55.236H13.809a1.979,1.979,0,0,0-1.973,1.973v3.945a1.979,1.979,0,0,0,1.973,1.973H65.1a1.979,1.979,0,0,0,1.973-1.973V57.209A1.979,1.979,0,0,0,65.1,55.236Zm7.891-39.455A5.92,5.92,0,0,0,67.073,21.7a5.8,5.8,0,0,0,.543,2.441l-8.927,5.351a3.94,3.94,0,0,1-5.45-1.43L43.19,10.48a5.918,5.918,0,1,0-7.472,0L25.67,28.062a3.943,3.943,0,0,1-5.45,1.43l-8.914-5.351a5.916,5.916,0,1,0-5.388,3.477,6.043,6.043,0,0,0,.949-.1l8.914,23.771H63.127L72.042,27.52a6.043,6.043,0,0,0,.949.1,5.918,5.918,0,0,0,0-11.836Z" opacity="0.43"/>
</svg>
