<svg id="Component_1_1" data-name="Component 1 – 1" xmlns="http://www.w3.org/2000/svg" width="124.096" height="104.679" viewBox="0 0 124.096 104.679">
  <g id="suit-heart" transform="translate(78.853 104.679) rotate(-135)">
    <path id="Path_1" data-name="Path 1" d="M37.335,39.547,41.506,47.9a27.353,27.353,0,0,0,5.376,7.444A13.1,13.1,0,0,0,56,59.316,13.817,13.817,0,0,0,70,45.689c0-5.652-2.586-9.641-8.718-15.728-1.572-1.56-3.364-3.244-5.349-5.1a245.807,245.807,0,0,1-18.6-18.966,245.4,245.4,0,0,1-18.6,18.966c-1.983,1.858-3.781,3.547-5.349,5.1C7.253,36.048,4.667,40.037,4.667,45.689a13.817,13.817,0,0,0,14,13.627,13.093,13.093,0,0,0,9.118-3.976A27.354,27.354,0,0,0,33.161,47.9ZM39.164.85a2.394,2.394,0,0,0-3.659,0A227.285,227.285,0,0,1,15.7,21.295C6.067,30.344,0,36.034,0,45.689A18.48,18.48,0,0,0,18.667,63.983c7.467,0,12.69-4.9,15.886-9.371a35.313,35.313,0,0,0,2.781-4.629,35.234,35.234,0,0,0,2.781,4.629c3.2,4.476,8.419,9.371,15.886,9.371A18.48,18.48,0,0,0,74.669,45.689c0-9.655-6.067-15.345-15.7-24.394A229.716,229.716,0,0,1,39.164.854Z" transform="translate(0 0)" fill="#fe6291" fill-rule="evenodd"/>
  </g>
  <g id="suit-heart-2" data-name="suit-heart" transform="translate(67.387 31.096) rotate(135)">
    <path id="Path_1-2" data-name="Path 1" d="M25.661,27.182l2.867,5.738a18.8,18.8,0,0,0,3.7,5.117,9,9,0,0,0,6.268,2.733A9.5,9.5,0,0,0,48.114,31.4c0-3.885-1.778-6.626-5.992-10.81-1.081-1.072-2.312-2.23-3.677-3.506A168.95,168.95,0,0,1,25.661,4.051,168.672,168.672,0,0,1,12.875,17.087c-1.363,1.277-2.6,2.438-3.677,3.506-4.213,4.184-5.99,6.926-5.99,10.81a9.5,9.5,0,0,0,9.623,9.366A9,9,0,0,0,19.1,38.037a18.8,18.8,0,0,0,3.7-5.117ZM26.918.584a1.645,1.645,0,0,0-2.515,0,156.218,156.218,0,0,1-13.61,14.052C4.17,20.856,0,24.767,0,31.4A12.7,12.7,0,0,0,12.831,43.977c5.132,0,8.722-3.369,10.919-6.441a24.271,24.271,0,0,0,1.912-3.182,24.218,24.218,0,0,0,1.912,3.182c2.2,3.076,5.787,6.441,10.919,6.441A12.7,12.7,0,0,0,51.322,31.4c0-6.636-4.17-10.547-10.793-16.767A157.891,157.891,0,0,1,26.918.587Z" transform="translate(0 0)" fill="#fe6291" fill-rule="evenodd"/>
  </g>
</svg>
