<svg id="Component_2_1" data-name="Component 2 – 1" xmlns="http://www.w3.org/2000/svg" width="124.096" height="104.679" viewBox="0 0 124.096 104.679">
  <g id="suit-heart" transform="translate(0 59.436) rotate(-45)">
    <path id="Path_1" data-name="Path 1" d="M37.335,24.436l4.171-8.348a27.353,27.353,0,0,1,5.376-7.444A13.1,13.1,0,0,1,56,4.667,13.817,13.817,0,0,1,70,18.294c0,5.652-2.586,9.641-8.718,15.728-1.572,1.56-3.364,3.244-5.349,5.1a245.806,245.806,0,0,0-18.6,18.966,245.4,245.4,0,0,0-18.6-18.966c-1.983-1.858-3.781-3.547-5.349-5.1C7.253,27.935,4.667,23.946,4.667,18.294a13.817,13.817,0,0,1,14-13.627,13.093,13.093,0,0,1,9.118,3.976,27.354,27.354,0,0,1,5.376,7.444Zm1.829,38.7a2.394,2.394,0,0,1-3.659,0A227.286,227.286,0,0,0,15.7,42.688C6.067,33.638,0,27.949,0,18.294A18.48,18.48,0,0,1,18.667,0c7.467,0,12.69,4.9,15.886,9.371A35.312,35.312,0,0,1,37.335,14a35.234,35.234,0,0,1,2.781-4.629C43.312,4.9,48.535,0,56,0A18.48,18.48,0,0,1,74.669,18.294c0,9.655-6.067,15.345-15.7,24.394a229.716,229.716,0,0,0-19.8,20.441Z" transform="translate(0 0)" fill="#fe6291" fill-rule="evenodd"/>
  </g>
  <g id="suit-heart-2" data-name="suit-heart" transform="translate(87.806) rotate(45)">
    <path id="Path_1-2" data-name="Path 1" d="M25.661,16.8l2.867-5.738a18.8,18.8,0,0,1,3.7-5.117,9,9,0,0,1,6.268-2.733,9.5,9.5,0,0,1,9.623,9.366c0,3.885-1.778,6.626-5.992,10.81-1.081,1.072-2.312,2.23-3.677,3.506A168.95,168.95,0,0,0,25.661,39.926,168.672,168.672,0,0,0,12.875,26.89c-1.363-1.277-2.6-2.438-3.677-3.506-4.213-4.184-5.99-6.926-5.99-10.81a9.5,9.5,0,0,1,9.623-9.366A9,9,0,0,1,19.1,5.941a18.8,18.8,0,0,1,3.7,5.117Zm1.257,26.6a1.645,1.645,0,0,1-2.515,0,156.219,156.219,0,0,0-13.61-14.052C4.17,23.121,0,19.21,0,12.574A12.7,12.7,0,0,1,12.831,0c5.132,0,8.722,3.369,10.919,6.441a24.271,24.271,0,0,1,1.912,3.182,24.218,24.218,0,0,1,1.912-3.182C29.77,3.364,33.359,0,38.492,0A12.7,12.7,0,0,1,51.322,12.574c0,6.636-4.17,10.547-10.793,16.767A157.89,157.89,0,0,0,26.918,43.39Z" transform="translate(0 0)" fill="#fe6291" fill-rule="evenodd"/>
  </g>
</svg>
